# Propeller placeholder — flat disc (8-sided)
# Stonefish uses this as the propeller visual/collision mesh.
# Replace with an actual propeller model when available.

v  0.090  0.000  0.008
v  0.064  0.064  0.008
v  0.000  0.090  0.008
v -0.064  0.064  0.008
v -0.090  0.000  0.008
v -0.064 -0.064  0.008
v  0.000 -0.090  0.008
v  0.064 -0.064  0.008
v  0.000  0.000  0.008

v  0.090  0.000 -0.008
v  0.064  0.064 -0.008
v  0.000  0.090 -0.008
v -0.064  0.064 -0.008
v -0.090  0.000 -0.008
v -0.064 -0.064 -0.008
v  0.000 -0.090 -0.008
v  0.064 -0.064 -0.008
v  0.000  0.000 -0.008

# top face (fan from centre v9)
f 9 1 2
f 9 2 3
f 9 3 4
f 9 4 5
f 9 5 6
f 9 6 7
f 9 7 8
f 9 8 1

# bottom face (fan from centre v18, reversed winding)
f 18 11 10
f 18 12 11
f 18 13 12
f 18 14 13
f 18 15 14
f 18 16 15
f 18 17 16
f 18 10 17

# side quads (as triangles)
f 1  10 11
f 1  11  2
f 2  11 12
f 2  12  3
f 3  12 13
f 3  13  4
f 4  13 14
f 4  14  5
f 5  14 15
f 5  15  6
f 6  15 16
f 6  16  7
f 7  16 17
f 7  17  8
f 8  17 10
f 8  10  1
